<?xml version="1.0" encoding="UTF-8" standalone="no"?>
<!-- Created with Inkscape (http://www.inkscape.org/) -->

<svg
   width="640"
   height="320"
   viewBox="0 0 169.33333 84.666666"
   version="1.1"
   id="svg1"
   xml:space="preserve"
   sodipodi:docname="banner.svg"
   inkscape:version="1.4 (86a8ad7, 2024-10-11)"
   xmlns:inkscape="http://www.inkscape.org/namespaces/inkscape"
   xmlns:sodipodi="http://sodipodi.sourceforge.net/DTD/sodipodi-0.dtd"
   xmlns="http://www.w3.org/2000/svg"
   xmlns:svg="http://www.w3.org/2000/svg"><sodipodi:namedview
     id="namedview1"
     pagecolor="#505050"
     bordercolor="#ffffff"
     borderopacity="1"
     inkscape:showpageshadow="0"
     inkscape:pageopacity="0"
     inkscape:pagecheckerboard="1"
     inkscape:deskcolor="#505050"
     inkscape:zoom="1.3664839"
     inkscape:cx="310.28541"
     inkscape:cy="141.60431"
     inkscape:window-width="1920"
     inkscape:window-height="991"
     inkscape:window-x="-9"
     inkscape:window-y="-9"
     inkscape:window-maximized="1"
     inkscape:current-layer="svg1" /><defs
     id="defs1" /><g
     id="layer1"
     transform="matrix(1.6000001,0,0,1.6000001,42.33333,-2.6958333e-6)"><path
       fill="#41ecad"
       d="m 8.0724823,10.115361 a 6.1286172,6.1286172 0 0 0 0,12.257233 H 12.158229 V 10.115361 Z m 6.1286167,0 v 12.257233 h 4.085747 V 14.2011 a 2.0428723,2.0428723 0 0 1 2.04287,2.042878 v 6.128616 h 4.085748 V 16.243978 A 6.128617,6.128617 0 0 0 18.286846,10.115361 Z M 24.415464,14.2011 a 6.128617,6.128617 0 0 0 6.128616,6.128616 2.0428723,2.0428723 0 0 1 -2.04287,2.042878 h -2.042877 v 4.085739 h 2.042877 a 6.128617,6.128617 0 0 0 6.128618,-6.128617 V 10.115361 H 30.54408 v 6.128617 A 2.0428723,2.0428723 0 0 1 28.50121,14.2011 V 10.115361 H 24.415464 Z M 8.0724823,18.286847 a 2.0428737,2.0428737 0 0 1 0,-4.085747 z"
       id="path1"
       style="stroke-width:2.04287" /><path
       d="m 7.7910895,26.659903 h 3.6603085 v 6.425696 c 0,1.3491 -0.120935,2.375706 -0.362806,3.079818 -0.236496,0.704113 -0.71755,1.300727 -1.4431612,1.789843 -0.7202369,0.489116 -1.6447201,0.733674 -2.7734496,0.733674 -1.1932283,0 -2.1177114,-0.161247 -2.7734495,-0.483741 C 3.4427936,37.882699 2.9348653,37.412395 2.5747469,36.794281 2.2200033,36.170792 2.0103821,35.402181 1.9458833,34.488448 l 3.490999,-0.475679 c 0.00537,0.521365 0.05106,0.908358 0.13706,1.160979 0.085999,0.252621 0.2311208,0.456867 0.4353671,0.612739 0.1397475,0.102123 0.3386188,0.153185 0.5966141,0.153185 0.4084926,0 0.7067997,-0.150497 0.8949213,-0.451492 0.1934965,-0.306369 0.2902447,-0.723618 0.2902447,-1.53991 z m 5.4582135,7.909169 3.474874,-0.217684 c 0.07525,0.564365 0.228433,0.994357 0.459554,1.289977 0.376243,0.478366 0.913734,0.717549 1.612471,0.717549 0.521365,0 0.921796,-0.120935 1.201291,-0.362806 0.28487,-0.247245 0.427305,-0.532115 0.427305,-0.854609 0,-0.30637 -0.134373,-0.58049 -0.403118,-0.82236 -0.268745,-0.241871 -0.892234,-0.470304 -1.870466,-0.6853 -1.601721,-0.360119 -2.743887,-0.838485 -3.4265,-1.435099 -0.687988,-0.596615 -1.031982,-1.357163 -1.031982,-2.281646 0,-0.607364 0.174684,-1.179791 0.524053,-1.717282 0.354744,-0.542865 0.884172,-0.967482 1.588284,-1.273851 0.709487,-0.311745 1.679657,-0.467617 2.91051,-0.467617 1.510347,0 2.660576,0.282182 3.450687,0.846547 0.795485,0.55899 1.268477,1.451224 1.418974,2.676701 l -3.442625,0.201559 c -0.09137,-0.532115 -0.28487,-0.919108 -0.580489,-1.160979 -0.290245,-0.24187 -0.693362,-0.362805 -1.209353,-0.362805 -0.424617,0 -0.744424,0.09137 -0.95942,0.27412 -0.214996,0.177371 -0.322494,0.395055 -0.322494,0.65305 0,0.188122 0.08869,0.357431 0.266057,0.507928 0.171997,0.155873 0.580489,0.300995 1.225478,0.435367 1.596346,0.343994 2.738513,0.693363 3.4265,1.048106 0.693363,0.349369 1.195916,0.784736 1.50766,1.306102 0.317119,0.521365 0.475679,1.104542 0.475679,1.74953 0,0.757861 -0.209621,1.456599 -0.628864,2.096212 -0.419242,0.639613 -1.005106,1.126042 -1.757593,1.459286 -0.752486,0.327869 -1.701156,0.491804 -2.84601,0.491804 -2.010213,0 -3.402313,-0.386993 -4.176299,-1.160979 C 13.789481,36.745907 13.351426,35.7623 13.249303,34.569072 Z M 25.350897,32.57767 c 0,-1.92959 0.53749,-3.431875 1.61247,-4.506855 1.074981,-1.074981 2.571891,-1.612471 4.490731,-1.612471 1.967215,0 3.482937,0.529428 4.547168,1.588284 1.064231,1.053481 1.596346,2.531579 1.596346,4.434294 0,1.38135 -0.233808,2.515454 -0.701425,3.402313 -0.462242,0.881484 -1.134105,1.569472 -2.015589,2.063963 -0.876109,0.489116 -1.969901,0.733674 -3.281377,0.733674 -1.332976,0 -2.437519,-0.212309 -3.313628,-0.636926 -0.870734,-0.424617 -1.577534,-1.09648 -2.120399,-2.015589 -0.542865,-0.919108 -0.814297,-2.069337 -0.814297,-3.450687 z m 3.652246,0.01613 c 0,1.193228 0.220371,2.050525 0.661113,2.571891 0.446117,0.521365 1.050793,0.782048 1.814029,0.782048 0.784736,0 1.3921,-0.255308 1.822092,-0.765924 0.429992,-0.510615 0.644988,-1.427036 0.644988,-2.749262 0,-1.112605 -0.225746,-1.924215 -0.677237,-2.434831 -0.446117,-0.515991 -1.053481,-0.773986 -1.822092,-0.773986 -0.736361,0 -1.327601,0.260683 -1.773718,0.782049 -0.446117,0.521365 -0.669175,1.384037 -0.669175,2.588015 z m 10.58587,-5.933892 h 3.410376 l 4.450419,6.538568 v -6.538568 h 3.442625 v 11.81941 h -3.442625 l -4.426232,-6.490195 v 6.490195 h -3.434563 z"
       id="text1"
       style="font-weight:900;font-size:16.5117px;font-family:Arial;-inkscape-font-specification:'Arial, Heavy';fill:#ffffff;stroke-width:0;stroke-linecap:square;stroke-miterlimit:8;paint-order:fill markers stroke"
       aria-label="JSON" /><path
       style="fill:none;stroke:#00b0ff;stroke-width:2.65773;stroke-linecap:round;stroke-linejoin:round;stroke-miterlimit:8;stroke-dasharray:none;stroke-opacity:1;paint-order:fill markers stroke"
       d="m 37.294857,15.110381 c 0,0 2.509968,-1.781789 5.344533,0.116034 2.52409,1.689952 2.353148,4.425598 2.353148,4.425598"
       id="path2" /><path
       style="fill:none;stroke:#00b0ff;stroke-width:2.65773;stroke-linecap:round;stroke-linejoin:round;stroke-miterlimit:8;stroke-dasharray:none;stroke-opacity:1;paint-order:fill markers stroke"
       d="m 42.916614,19.652013 h 4.151849 l -2.256439,4.242107 z"
       id="path3" /><rect
       style="fill:#ffffff;fill-opacity:0;stroke:none;stroke-width:0;stroke-linecap:round;stroke-linejoin:round;stroke-miterlimit:8;stroke-dasharray:none;stroke-opacity:1;paint-order:fill markers stroke"
       id="rect3"
       width="105.83333"
       height="52.916664"
       x="-26.45833"
       y="0" /></g></svg>
